<svg width="28" height="32" viewBox="0 0 28 32" fill="none" xmlns="http://www.w3.org/2000/svg">
    <g clip-path="url(#clip0_4_5965)">
        <path d="M3 1.5C3 0.66875 2.33125 0 1.5 0C0.66875 0 0 0.66875 0 1.5V4V21.9062V25V30.5C0 31.3312 0.66875 32 1.5 32C2.33125 32 3 31.3312 3 30.5V24.25L8.01875 22.9937C10.5875 22.35 13.3062 22.65 15.675 23.8312C18.4375 25.2125 21.6437 25.3813 24.5312 24.2938L26.7 23.4813C27.4813 23.1875 28 22.4438 28 21.6063V4.13125C28 2.69375 26.4875 1.75625 25.2 2.4L24.6 2.7C21.7063 4.15 18.3 4.15 15.4062 2.7C13.2125 1.6 10.6938 1.325 8.3125 1.91875L3 3.25V1.5ZM3 6.34375L9.0375 4.83125C10.725 4.4125 12.5063 4.60625 14.0625 5.38125C17.4937 7.09375 21.4813 7.2375 25 5.80625V20.9188L23.475 21.4875C21.3687 22.275 19.025 22.1562 17.0125 21.15C14 19.6437 10.5562 19.2687 7.2875 20.0812L3 21.1562V6.34375Z" fill="white"/>
    </g>
    <defs>
        <clipPath id="clip0_4_5965">
            <rect width="28" height="32" fill="white"/>
        </clipPath>
    </defs>
</svg>