<svg width="26" height="32" viewBox="0 0 26 32" fill="none" xmlns="http://www.w3.org/2000/svg">
    <path d="M4.90828 0C2.67667 0 0.862305 1.79375 0.862305 4V28C0.862305 30.2062 2.67667 32 4.90828 32H21.0922C23.3238 32 25.1382 30.2062 25.1382 28V4C25.1382 1.79375 23.3238 0 21.0922 0H4.90828ZM6.93127 4H19.0692C20.1882 4 21.0922 4.89375 21.0922 6V8C21.0922 9.10625 20.1882 10 19.0692 10H6.93127C5.8123 10 4.90828 9.10625 4.90828 8V6C4.90828 4.89375 5.8123 4 6.93127 4ZM8.95426 14C8.95426 14.5304 8.74112 15.0391 8.36174 15.4142C7.98236 15.7893 7.4678 16 6.93127 16C6.39474 16 5.88019 15.7893 5.5008 15.4142C5.12142 15.0391 4.90828 14.5304 4.90828 14C4.90828 13.4696 5.12142 12.9609 5.5008 12.5858C5.88019 12.2107 6.39474 12 6.93127 12C7.4678 12 7.98236 12.2107 8.36174 12.5858C8.74112 12.9609 8.95426 13.4696 8.95426 14ZM6.93127 22C6.39474 22 5.88019 21.7893 5.5008 21.4142C5.12142 21.0391 4.90828 20.5304 4.90828 20C4.90828 19.4696 5.12142 18.9609 5.5008 18.5858C5.88019 18.2107 6.39474 18 6.93127 18C7.4678 18 7.98236 18.2107 8.36174 18.5858C8.74112 18.9609 8.95426 19.4696 8.95426 20C8.95426 20.5304 8.74112 21.0391 8.36174 21.4142C7.98236 21.7893 7.4678 22 6.93127 22ZM4.90828 26C4.90828 24.8937 5.8123 24 6.93127 24H13.0002C14.1192 24 15.0232 24.8937 15.0232 26C15.0232 27.1063 14.1192 28 13.0002 28H6.93127C5.8123 28 4.90828 27.1063 4.90828 26ZM13.0002 16C12.4637 16 11.9492 15.7893 11.5698 15.4142C11.1904 15.0391 10.9772 14.5304 10.9772 14C10.9772 13.4696 11.1904 12.9609 11.5698 12.5858C11.9492 12.2107 12.4637 12 13.0002 12C13.5368 12 14.0513 12.2107 14.4307 12.5858C14.8101 12.9609 15.0232 13.4696 15.0232 14C15.0232 14.5304 14.8101 15.0391 14.4307 15.4142C14.0513 15.7893 13.5368 16 13.0002 16ZM15.0232 20C15.0232 20.5304 14.8101 21.0391 14.4307 21.4142C14.0513 21.7893 13.5368 22 13.0002 22C12.4637 22 11.9492 21.7893 11.5698 21.4142C11.1904 21.0391 10.9772 20.5304 10.9772 20C10.9772 19.4696 11.1904 18.9609 11.5698 18.5858C11.9492 18.2107 12.4637 18 13.0002 18C13.5368 18 14.0513 18.2107 14.4307 18.5858C14.8101 18.9609 15.0232 19.4696 15.0232 20ZM19.0692 16C18.5327 16 18.0181 15.7893 17.6387 15.4142C17.2593 15.0391 17.0462 14.5304 17.0462 14C17.0462 13.4696 17.2593 12.9609 17.6387 12.5858C18.0181 12.2107 18.5327 12 19.0692 12C19.6057 12 20.1203 12.2107 20.4997 12.5858C20.8791 12.9609 21.0922 13.4696 21.0922 14C21.0922 14.5304 20.8791 15.0391 20.4997 15.4142C20.1203 15.7893 19.6057 16 19.0692 16ZM21.0922 20C21.0922 20.5304 20.8791 21.0391 20.4997 21.4142C20.1203 21.7893 19.6057 22 19.0692 22C18.5327 22 18.0181 21.7893 17.6387 21.4142C17.2593 21.0391 17.0462 20.5304 17.0462 20C17.0462 19.4696 17.2593 18.9609 17.6387 18.5858C18.0181 18.2107 18.5327 18 19.0692 18C19.6057 18 20.1203 18.2107 20.4997 18.5858C20.8791 18.9609 21.0922 19.4696 21.0922 20ZM19.0692 28C18.5327 28 18.0181 27.7893 17.6387 27.4142C17.2593 27.0391 17.0462 26.5304 17.0462 26C17.0462 25.4696 17.2593 24.9609 17.6387 24.5858C18.0181 24.2107 18.5327 24 19.0692 24C19.6057 24 20.1203 24.2107 20.4997 24.5858C20.8791 24.9609 21.0922 25.4696 21.0922 26C21.0922 26.5304 20.8791 27.0391 20.4997 27.4142C20.1203 27.7893 19.6057 28 19.0692 28Z" fill="white"/>
</svg>